<?xml version="1.0" encoding="utf-8"?>
<!-- Generator: Adobe Illustrator 16.0.4, SVG Export Plug-In . SVG Version: 6.00 Build 0)  -->
<!DOCTYPE svg PUBLIC "-//W3C//DTD SVG 1.1//EN" "http://www.w3.org/Graphics/SVG/1.1/DTD/svg11.dtd">
<svg version="1.1" id="Layer_1" xmlns="http://www.w3.org/2000/svg" xmlns:xlink="http://www.w3.org/1999/xlink" x="0px" y="0px"
	 width="120px" height="150px" viewBox="0 0 120 150" enable-background="new 0 0 120 150" xml:space="preserve">
<path d="M60,0C32.386,0,10,22.386,10,50s22.386,50,50,50c27.613,0,50-22.386,50-50S87.613,0,60,0z M67.206,78.493
	c0,4.041-3.276,7.315-7.317,7.315c-4.041,0-7.317-3.274-7.317-7.315V46.785c0-4.041,3.276-7.316,7.317-7.316
	c4.041,0,7.317,3.276,7.317,7.316V78.493z M59.89,31.042c-4.041,0-7.317-3.176-7.317-7.096c0-3.92,3.276-7.095,7.317-7.095
	c4.042,0,7.317,3.176,7.317,7.095C67.207,27.865,63.932,31.042,59.89,31.042z"/>
</svg>
