<?xml version="1.0" encoding="utf-8"?>
<!-- Generator: Adobe Illustrator 16.0.4, SVG Export Plug-In . SVG Version: 6.00 Build 0)  -->
<!DOCTYPE svg PUBLIC "-//W3C//DTD SVG 1.1//EN" "http://www.w3.org/Graphics/SVG/1.1/DTD/svg11.dtd">
<svg version="1.1" id="Layer_1" xmlns="http://www.w3.org/2000/svg" xmlns:xlink="http://www.w3.org/1999/xlink" x="0px" y="0px"
	 width="152px" height="230px" viewBox="0 0 152 230" enable-background="new 0 0 152 230" xml:space="preserve">
<g id="Layer_2">
	<path d="M152,152H0V0h152V152z M4,147h144V4H4V147z"/>
	<rect y="173" width="152" height="2"/>
	<rect y="199" width="152" height="2"/>
	<text transform="matrix(1 0 0 1 0.3027 194.1641)" font-family="'MyriadPro-Regular'" font-size="21">LL</text>
	<text transform="matrix(1 0 0 1 68.5049 194.1641)" font-family="'MyriadPro-Regular'" font-size="21">########</text>
	<text transform="matrix(1 0 0 1 0.584 221.8301)" font-family="'MyriadPro-Regular'" font-size="21">Lux</text>
	<text transform="matrix(1 0 0 1 101.5215 221.8301)" font-family="'MyriadPro-Regular'" font-size="21">Leaks</text>
	<path d="M87.13,55H65v2.511c8,0.535,7,1.088,7,8.439v35.164c0,7.361-0.654,7.886-8.021,8.886L64,112h39.57
		c0.771-2,2.604-10.892,3.146-13.701l-2.62-0.437c-1.453,4.48-3.229,7.159-4.461,8.616c-2.018,2.293-4.996,2.725-9.792,2.725
		c-3.798,0-6.896-0.195-8.612-1.144c-1.543-0.86-2.229-2.585-2.229-7.384V65.95c0-7.264,1.014-7.95,8.13-7.95L87.13,55z"/>
	<g>
		<path d="M79.002,92.019v-3.262c-1.561,0.359-3.438,0.465-5.744,0.465c-0.43,0-0.847-0.003-1.258-0.009v2.806H79.002z"/>
		<path d="M70,92.019v-2.872c-2.295-0.119-4.163-0.41-5.355-1.069c-1.543-0.86-2.229-2.585-2.229-7.384V45.969
			c0-7.264,1.014-7.95,8.13-7.95h-0.132v-3h-23v2.511c8,0.535,8,1.088,8,8.439v35.164c0,7.361-0.654,7.886-8.021,8.886h0.021v2H70z"
			/>
		<path d="M83.049,86.497c-0.589,0.669-1.272,1.166-2.047,1.553v3.969h5.982c0.771-2,2.605-10.892,3.146-13.701l-2.621-0.437
			C86.057,82.361,84.281,85.04,83.049,86.497z"/>
	</g>
</g>
</svg>
