<svg version="1.1" id="Layer_1" xmlns="http://www.w3.org/2000/svg" xmlns:xlink="http://www.w3.org/1999/xlink" x="0px" y="0px"
	 width="392px" height="148.431px" viewBox="0 0 392 148.431" enable-background="new 0 0 392 148.431" xml:space="preserve">
	<g>
		<path d="M69.516,35.815c0,9.271-2.656,16.635-7.969,22.09c-5.312,5.456-12.656,8.184-22.031,8.184
			c-9.35,0-16.68-2.728-21.992-8.184c-5.312-5.455-7.969-12.818-7.969-22.09c0-9.349,2.656-16.738,7.969-22.168
			s12.643-8.145,21.992-8.145c9.322,0,16.653,2.715,21.992,8.145C66.846,19.077,69.516,26.466,69.516,35.815z M49.633,50.542
			c1.458-1.771,2.539-3.86,3.242-6.27c0.703-2.408,1.055-5.24,1.055-8.496c0-3.489-0.404-6.458-1.211-8.906
			c-0.808-2.447-1.862-4.427-3.164-5.938c-1.328-1.562-2.858-2.695-4.59-3.398c-1.732-0.703-3.535-1.055-5.41-1.055
			c-1.901,0-3.691,0.339-5.371,1.016c-1.68,0.678-3.223,1.797-4.629,3.359c-1.303,1.459-2.363,3.471-3.184,6.035
			c-0.82,2.565-1.23,5.541-1.23,8.926c0,3.464,0.396,6.413,1.191,8.848c0.794,2.436,1.842,4.421,3.145,5.957
			c1.302,1.537,2.825,2.67,4.57,3.398c1.744,0.729,3.58,1.094,5.508,1.094c1.927,0,3.763-0.371,5.508-1.113
			C46.807,53.256,48.33,52.104,49.633,50.542z"/>
		<path d="M108.617,14.409h-1.052c-0.623-0.182-1.435-0.391-2.435-0.625s-2.07-0.352-3.213-0.352c-2.753,0-4.616,0.495-5.59,1.484
			c-0.975,0.99-1.461,2.904-1.461,5.742v0.352h10.82v9.531H95.336v34.336H81.234V30.542h-6.016V21.01h6.016v-1.211
			c0-5.364,1.426-9.388,4.277-12.07c2.852-2.682,7.168-4.023,12.949-4.023c2.083,0,3.971,0.072,5.664,0.215
			c1.692,0.144,3.189,0.332,4.492,0.566V14.409z"/>
		<path d="M142.406,14.409h-1.052c-0.623-0.182-1.435-0.391-2.435-0.625s-2.07-0.352-3.213-0.352c-2.753,0-4.616,0.495-5.59,1.484
			c-0.975,0.99-1.461,2.904-1.461,5.742v0.352h10.82v9.531h-10.352v34.336h-14.102V30.542h-6.016V21.01h6.016v-1.211
			c0-5.364,1.426-9.388,4.277-12.07c2.852-2.682,7.168-4.023,12.949-4.023c2.083,0,3.971,0.072,5.664,0.215
			c1.692,0.144,3.189,0.332,4.492,0.566V14.409z"/>
		<path d="M185.883,50.971c0,4.531-2.031,8.184-6.094,10.957s-9.623,4.16-16.68,4.16c-3.906,0-7.448-0.365-10.625-1.094
			c-3.178-0.729-5.729-1.536-7.656-2.422V51.01h1.289c0.703,0.495,1.517,1.035,2.441,1.621c0.924,0.586,2.232,1.218,3.926,1.895
			c1.458,0.6,3.111,1.113,4.961,1.543c1.849,0.43,3.828,0.645,5.938,0.645c2.76,0,4.805-0.306,6.133-0.918
			c1.328-0.611,1.992-1.517,1.992-2.715c0-1.067-0.391-1.842-1.172-2.324c-0.781-0.481-2.266-0.943-4.453-1.387
			c-1.042-0.234-2.455-0.488-4.238-0.762c-1.784-0.273-3.405-0.605-4.863-0.996c-3.984-1.041-6.94-2.662-8.867-4.863
			c-1.928-2.2-2.891-4.941-2.891-8.223c0-4.219,1.998-7.728,5.996-10.527c3.997-2.799,9.459-4.199,16.387-4.199
			c3.281,0,6.426,0.332,9.434,0.996s5.357,1.374,7.051,2.129v11.094h-1.211c-2.084-1.432-4.46-2.598-7.129-3.496
			c-2.67-0.898-5.371-1.348-8.105-1.348c-2.266,0-4.174,0.312-5.723,0.938c-1.55,0.625-2.324,1.511-2.324,2.656
			c0,1.042,0.352,1.836,1.055,2.383s2.356,1.094,4.961,1.641c1.432,0.287,2.975,0.566,4.629,0.84c1.653,0.273,3.313,0.619,4.98,1.035
			c3.697,0.964,6.432,2.48,8.203,4.551C184.997,45.288,185.883,47.873,185.883,50.971z"/>
		<path d="M239.281,64.877H225.18V43.12c0-1.771-0.092-3.535-0.273-5.293c-0.183-1.758-0.495-3.053-0.938-3.887
			c-0.521-0.963-1.283-1.666-2.285-2.109c-1.003-0.442-2.402-0.664-4.199-0.664c-1.276,0-2.572,0.209-3.887,0.625
			c-1.315,0.417-2.741,1.081-4.277,1.992v31.094h-14.102V4.096h14.102v21.758c2.496-1.953,4.896-3.45,7.197-4.492
			c2.302-1.041,4.857-1.562,7.666-1.562c4.733,0,8.433,1.381,11.099,4.141c2.666,2.761,3.999,6.889,3.999,12.383V64.877z"/>
		<path d="M297.055,42.963c0,7.214-2.104,12.897-6.309,17.051c-4.206,4.154-10.111,6.23-17.715,6.23
			c-7.604,0-13.51-2.076-17.715-6.23c-4.206-4.153-6.309-9.837-6.309-17.051c0-7.266,2.115-12.969,6.348-17.109
			c4.231-4.141,10.123-6.211,17.676-6.211c7.656,0,13.574,2.084,17.754,6.25C294.965,30.06,297.055,35.75,297.055,42.963z
			 M279.75,53.627c0.911-1.119,1.595-2.467,2.051-4.043c0.455-1.575,0.684-3.756,0.684-6.543c0-2.578-0.234-4.739-0.703-6.484
			c-0.469-1.744-1.12-3.138-1.953-4.18c-0.834-1.067-1.836-1.822-3.008-2.266c-1.172-0.442-2.436-0.664-3.789-0.664
			c-1.354,0-2.559,0.183-3.613,0.547c-1.055,0.365-2.064,1.094-3.027,2.188c-0.859,1.016-1.543,2.409-2.051,4.18
			c-0.508,1.771-0.762,3.998-0.762,6.68c0,2.396,0.221,4.473,0.664,6.23c0.442,1.758,1.094,3.171,1.953,4.238
			c0.833,1.016,1.829,1.758,2.988,2.227c1.158,0.469,2.48,0.703,3.965,0.703c1.275,0,2.493-0.215,3.652-0.645
			C277.959,55.366,278.942,54.643,279.75,53.627z"/>
		<path d="M338.93,34.409h-1.247c-0.598-0.208-1.56-0.364-2.884-0.469c-1.326-0.104-2.431-0.156-3.313-0.156
			c-2.001,0-3.768,0.131-5.301,0.391c-1.533,0.261-3.184,0.703-4.95,1.328v29.375h-14.102V21.01h14.102v6.445
			c3.092-2.656,5.781-4.42,8.067-5.293c2.287-0.872,4.392-1.309,6.315-1.309c0.493,0,1.052,0.014,1.676,0.039
			c0.624,0.026,1.169,0.065,1.637,0.117V34.409z"/>
		<path d="M390.102,45.542h-32.188c0.208,3.438,1.517,6.068,3.926,7.891c2.408,1.823,5.957,2.734,10.645,2.734
			c2.969,0,5.846-0.533,8.633-1.602c2.786-1.067,4.986-2.213,6.602-3.438h1.562v11.289c-3.178,1.276-6.172,2.201-8.984,2.773
			s-5.925,0.859-9.336,0.859c-8.803,0-15.547-1.979-20.234-5.938c-4.688-3.958-7.031-9.596-7.031-16.914
			c0-7.239,2.22-12.975,6.66-17.207c4.439-4.231,10.527-6.348,18.262-6.348c7.135,0,12.5,1.804,16.094,5.41
			c3.594,3.607,5.391,8.796,5.391,15.566V45.542z M376.117,37.299c-0.078-2.942-0.808-5.156-2.188-6.641
			c-1.381-1.484-3.529-2.227-6.445-2.227c-2.709,0-4.936,0.703-6.68,2.109c-1.745,1.406-2.722,3.659-2.93,6.758H376.117z"/>
		<path d="M62.211,144.725H47.067l-1.336-11.875H24.416l-6.804,11.875H1.898l34.883-58.164h17.344L62.211,144.725z M44.637,122.42
			l-2.378-20.765L30.352,122.42H44.637z"/>
		<path d="M101.352,124.491H71.547l2.578-11.25h29.805L101.352,124.491z"/>
		<path d="M153.266,144.725h-48.867l2.5-10.703l38.496-36.406h-28.691l2.539-11.055h45.898l-2.539,10.898l-38.348,36.211h31.59
			L153.266,144.725z"/>
	</g>
</svg>
