<svg version="1.1" id="Layer_1" xmlns="http://www.w3.org/2000/svg" xmlns:xlink="http://www.w3.org/1999/xlink" x="0px" y="0px"
	 width="152px" height="230px" viewBox="0 0 152 230" enable-background="new 0 0 152 230" xml:space="preserve">
<g id="Layer_2">
	<path d="M152,152H0V0h152V152z M4,147h144V4H4V147z"/>
	<rect y="173" width="152" height="2"/>
	<rect y="199" width="152" height="2"/>
	<text transform="matrix(1 0 0 1 0.3027 194.1641)" font-family="'MyriadPro-Regular'" font-size="21">OL</text>
	<text transform="matrix(1 0 0 1 152 194.1641)" font-family="'MyriadPro-Regular'" text-anchor="end" font-size="21">########</text>
	<text transform="matrix(1 0 0 1 0.584 221.8301)" font-family="'MyriadPro-Regular'" font-size="21">Offshore</text>
	<text transform="matrix(1 0 0 1 101.5215 221.8301)" font-family="'MyriadPro-Regular'" font-size="21">Leaks</text>
	<g>
		<path d="M94,63v-3h-5.113c0.086,1,0.141,2.408,0.165,3.519C90.188,63.095,91.807,63,94.13,63H94z"/>
		<path d="M76,90.514c-2,1.198-4.956,1.795-7.726,1.795C54.527,92.31,44.6,78.953,44.6,60.625c0-18.23,9.999-27.838,20.92-27.838
			C76.748,32.787,86.445,41,88.613,57H97v7.889l-2.521,0.18c-2.602,0.199-4.396,0.33-4.883,0.857C89.076,66.486,89,68.456,89,70.95
			v16.187c6-5.855,10.002-14.474,10.002-25.246c0-19.497-14.902-32.354-31.477-32.354c-20.475,0-32.743,16.269-32.743,33.816
			c0,18.719,13.798,32.451,31.445,32.451c3.481,0,6.772-0.496,9.772-1.44L76,90.514L76,90.514z"/>
		<path d="M86,89.32v-9.96c-1,4.289-4,7.497-7,9.647v4.479C82,92.437,84,91.036,86,89.32z"/>
	</g>
	<path d="M111.096,102.862c-1.453,4.48-3.229,7.159-4.461,8.616c-2.018,2.293-4.996,2.725-9.792,2.725
		c-3.798,0-6.896-0.195-8.612-1.144c-1.543-0.86-2.229-2.585-2.229-7.384V70.95c0-7.264,1.013-7.95,8.13-7.95H94v-3H71v2.511
		c8,0.535,8,1.088,8,8.439v35.164c0,7.361-0.654,7.886-8.021,8.886H71v2h39.57c0.771-2,2.605-10.892,3.146-13.701L111.096,102.862z"
		/>
</g>
</svg>
