<svg version="1.1" id="Layer_1" xmlns="http://www.w3.org/2000/svg" xmlns:xlink="http://www.w3.org/1999/xlink" x="0px" y="0px"
	 width="152px" height="230px" viewBox="0 0 152 230" enable-background="new 0 0 152 230" xml:space="preserve">
<g id="Layer_2">
	<path d="M152,152H0V0h152V152z M4,147h144V4H4V147z"/>
	<rect y="173" width="152" height="2"/>
	<rect y="199" width="152" height="2"/>
	<text transform="matrix(1 0 0 1 0.3027 194.1641)" font-family="'MyriadPro-Regular'" font-size="21">PP</text>
	<text transform="matrix(1 0 0 1 152 194.1641)" font-family="'MyriadPro-Regular'" text-anchor="end" font-size="21">########</text>
	<path d="M107.668,59.282C103.803,56.384,98.295,55,91.436,55H68v3.154c7,0.483,7,0.87,7,9.372v38.647c0,8.02,0,8.792-8,9.372V118
		h26v-2.454c-9-0.58-9-1.063-9-9.275v-15.17l6.955,1.836c0.133,0.012,0.18,0.023,0.335,0.032c0.474,0.028,0.987,0.045,1.58,0.045
		C93.24,93.013,93.573,93,93.95,93c0.01,0,0.021,0,0.03,0c0.387,0,0.77-0.034,1.127-0.059c9.371-1.256,18.84-7.458,18.84-19.921
		C113.947,66.644,111.436,62.084,107.668,59.282z M90.857,89.072c-3.188,0-5.857-0.676-6.857-1.16V64.241
		c0-2.706,0.096-3.865,0.867-4.541c0.678-0.676,2.607-1.16,5.314-1.16c7.922,0,14.637,4.445,14.637,14.879
		C104.818,85.69,97.139,89.072,90.857,89.072z"/>
	<text transform="matrix(1 0 0 1 -0.5225 221.8301)" font-family="'MyriadPro-Regular'" font-size="21">Panama</text>
	<text transform="matrix(1 0 0 1 91.2949 221.8301)" font-family="'MyriadPro-Regular'" font-size="21">Papers</text>
	<g>
		<path d="M82.468,55h-9.269c-0.316,2-0.729,2.492-1.225,3.442c2.662,0.634,3.348,2.003,3.485,6.406
			C78.665,62.553,81.214,60,82.468,55z"/>
		<path d="M59.506,69.494c1.082,0.098,3.064,0.098,4.54,0c3.042-0.406,6.145-1.317,8.889-2.773
			c-0.011-1.849-0.059-4.599-0.616-5.225c-0.237-0.266-0.959-0.443-1.865-0.57c-2.879,3.458-7.321,4.647-11.052,4.647
			c-3.246,0-5.401-0.688-7.401-1.18V40.294c0-2.754,0.521-3.935,1.308-4.623c0.688-0.688,2.868-1.181,5.623-1.181
			c8.067,0,14.912,4.551,14.912,15.174c0,1.192-0.036,2.336-0.171,3.336h9.351c0.184-1,0.305-2.358,0.305-3.631
			c0-6.492-2.553-11.208-6.383-14.061C73.015,32.366,67.406,31,60.421,31H36v3.097c7,0.492,8,0.885,8,9.541v39.334
			c0,8.165-1,8.952-8,9.542V95h26v-2.486c-9-0.59-10-1.082-10-9.444V67.632L59.506,69.494z"/>
	</g>
</g>
</svg>
